# xmcd CD database file
#
# Track frame offsets:
#	150
#	43257
#	91472
#	127255
#	160180
#	172597
#	205517
#	230635
#	261447
#	291062
#	308937
#
# Disc length: 4721 seconds
#
# Revision: 0
# Processed by: cddbd v1.5.1PL0 Copyright (c) Steve Scherf et al.
# Submitted via: CDex 1.51
#
DISCID=9a126f0b
DTITLE=Coleman Hawkins and Pee Wee Russell - Jam Session in Swingville
DYEAR=1961
DGENRE=Jazz
TTITLE0=Jammin in swingville
TTITLE1=Cool sunrise
TTITLE2=Spring's swing
TTITLE3=Love me or leave me
TTITLE4=I want to be happy
TTITLE5=Pheonix
TTITLE6=So Glad
TTITLE7=Things Ain't What the Used to be
TTITLE8=I may be wrong
TTITLE9=Vic's Spot
TTITLE10=Years Ago
EXTD=YEAR: 1961
EXTT0=
EXTT1=
EXTT2=
EXTT3=
EXTT4=
EXTT5=
EXTT6=
EXTT7=
EXTT8=
EXTT9=
EXTT10=
PLAYORDER=
